<svg xmlns="http://www.w3.org/2000/svg" width="29.788" height="29.842" viewBox="0 0 29.788 29.842">
  <g id="Icon_" data-name="Icon " transform="translate(0.829 0.864)">
    <rect id="Area_ICON:custom_google_SIZE:MEDIUM_STATE:DEFAULT_STYLE:STYLE2_" data-name="Area [ICON:custom/google][SIZE:MEDIUM][STATE:DEFAULT][STYLE:STYLE2]" width="28" height="28" transform="translate(0.375 0.5)" fill="none" opacity="0"/>
    <g id="Icon" transform="translate(0.027 0.002)">
      <path id="Path" d="M31.177,14.634H30.044v-.059H17.388V20.2h7.948a8.444,8.444,0,1,1-2.35-9.113l3.978-3.978a14.014,14.014,0,1,0,4.213,7.525Z" transform="translate(-3.352 -3.327)" fill="none" stroke="#04c4d9" stroke-linecap="round" stroke-linejoin="round" stroke-width="1.667"/>
      <path id="Path-2" data-name="Path" d="M5.255,10.877l4.638,3.4A8.449,8.449,0,0,1,23.358,11.12l3.992-3.99a14.086,14.086,0,0,0-22.095,3.75Z" transform="translate(-3.655 -3.335)" fill="none" stroke="#04c4d9" stroke-linecap="round" stroke-linejoin="round" stroke-width="1.667"/>
      <path id="Path-3" data-name="Path" d="M17.725,34.629a14.045,14.045,0,0,0,9.463-3.665L22.818,27.27A8.444,8.444,0,0,1,9.764,23.378l-4.6,3.547A14.1,14.1,0,0,0,17.725,34.629Z" transform="translate(-3.638 -6.507)" fill="none" stroke="#04c4d9" stroke-linecap="round" stroke-linejoin="round" stroke-width="1.667"/>
      <path id="Path-4" data-name="Path" d="M33.838,16.725H32.7v-.058H20v5.645h7.976a8.495,8.495,0,0,1-2.884,3.93h0l4.368,3.7a13.649,13.649,0,0,0,4.65-10.448A14.155,14.155,0,0,0,33.838,16.725Z" transform="translate(-6.014 -5.478)" fill="none" stroke="#04c4d9" stroke-linecap="round" stroke-linejoin="round" stroke-width="1.667"/>
    </g>
  </g>
</svg>
