<svg xmlns="http://www.w3.org/2000/svg" width="50.8" height="38.902" viewBox="0 0 50.8 38.902">
  <path id="Path_45" data-name="Path 45" d="M93.172,271.9c.233-.356.525-.622.982-.461s.51.543.51.97q-.009,8.9,0,17.807v.63H126.2V290.3q0-11.234,0-22.469c0-1.164-.42-1.589-1.573-1.589H96.21c-1.133,0-1.548.418-1.549,1.556,0,.182-.006.364,0,.546.017.417-.028.8-.483.985s-.74-.1-1.006-.407v-1.985a7.691,7.691,0,0,1,.645-1.206,2.651,2.651,0,0,1,2.227-.981q10.094.01,20.189,0,4.266,0,8.532,0a2.722,2.722,0,0,1,2.921,2.907c0,.826,0,1.652,0,2.554h.545c1.885,0,3.77,0,5.655,0a2.809,2.809,0,0,1,3.01,3.008q.011,5.333,0,10.667v.626c.223.011.4.026.574.026,1.174,0,2.348-.007,3.522,0a2.81,2.81,0,0,1,2.975,2.994q0,4.788,0,9.575a2.8,2.8,0,0,1-2.962,2.952c-.412,0-.824,0-1.259,0l-.133.436a4.384,4.384,0,0,1-4.173,3.148,4.339,4.339,0,0,1-4.2-3.1.575.575,0,0,0-.679-.492c-2.894.018-5.787.01-8.681.009a4.145,4.145,0,0,1-.446-.007.733.733,0,0,1-.711-.792.7.7,0,0,1,.76-.683c1.025-.013,2.05-.005,3.075-.006h1.606v-6.167H94.725c-.016.032-.056.074-.056.115,0,1.62-.017,3.241,0,4.862a1.186,1.186,0,0,0,1.071,1.174c.1.015.2.006.3.017.926.1,1.554.026,1.936-1.131a4.063,4.063,0,0,1,4.341-2.536,4.282,4.282,0,0,1,3.761,3.123c.128.464.337.556.778.554,3.6-.018,7.209-.01,10.814-.01.165,0,.375-.055.486.025a1.551,1.551,0,0,1,.6.626.6.6,0,0,1-.455.766,2.1,2.1,0,0,1-.634.068q-5.407.006-10.814,0h-.626A4.5,4.5,0,0,1,104.182,303a4.313,4.313,0,0,1-2.6.642,4.5,4.5,0,0,1-4.018-3.574c-.3,0-.631-.021-.955,0a2.992,2.992,0,0,1-3.434-2.174Zm34.543-.19v26.845c.119.01.215.024.311.024,1.006,0,2.012,0,3,0,1.065-2.664,2.346-3.711,4.462-3.683a4.249,4.249,0,0,1,2.456.8,4.494,4.494,0,0,1,1.809,2.869c.538,0,1.051.035,1.557-.009a1.2,1.2,0,0,0,1.144-1.117c.037-1.5.012-3,.012-4.56-.622,0-1.213,0-1.8,0a2.345,2.345,0,0,1-1.57-.5,2.23,2.23,0,0,1-.711-2.416,2.193,2.193,0,0,1,2.091-1.538c.654-.023,1.31,0,1.954,0,.225-1.66-.167-2.435-1.967-2.4-3.256.061-6.513.019-9.77.016-.783,0-1.012-.23-1.012-1q0-5.456,0-10.913c0-.68.25-.933.919-.935,1.422,0,2.843,0,4.265,0h.519c-.025-.9-.469-1.457-1.228-1.467C132.025,271.694,129.894,271.711,127.715,271.711ZM131.2,274.7v9.8h4.174v-9.8Zm1.329,24.6a2.889,2.889,0,1,0,2.87-2.909A2.882,2.882,0,0,0,132.533,299.3Zm-33.523-.047a2.886,2.886,0,1,0,2.917-2.862A2.885,2.885,0,0,0,99.01,299.249Zm43.45-9.324c-.705,0-1.394-.029-2.078.011a.72.72,0,0,0,.005,1.422c.682.036,1.368.01,2.073.01Z" transform="translate(-93.172 -264.752)" fill="#04c4d9"/>
</svg>
