<svg xmlns="http://www.w3.org/2000/svg" width="28.037" height="28" viewBox="0 0 28.037 28">
  <g id="Icon_" data-name="Icon " transform="translate(-0.338 -0.5)">
    <rect id="Area_ICON:feather_twitter_SIZE:MEDIUM_STATE:DEFAULT_STYLE:STYLE2_" data-name="Area [ICON:feather/twitter][SIZE:MEDIUM][STATE:DEFAULT][STYLE:STYLE2]" width="28" height="28" transform="translate(0.375 0.5)" fill="rgba(253,73,198,0.35)" opacity="0"/>
    <g id="Icon" transform="translate(1.171 3.503)">
      <path id="Path" d="M26.615,2.5A12.789,12.789,0,0,1,22.935,4.3a5.25,5.25,0,0,0-9.211,3.516V8.984A12.493,12.493,0,0,1,3.177,3.675S-1.51,14.222,9.037,18.91a13.638,13.638,0,0,1-8.2,2.343c10.547,5.86,23.438,0,23.438-13.476a5.258,5.258,0,0,0-.094-.973A9.038,9.038,0,0,0,26.615,2.5Z" transform="translate(-0.833 -2.491)" fill="none" stroke="#04c4d9" stroke-linecap="round" stroke-linejoin="round" stroke-width="1.667"/>
    </g>
  </g>
</svg>
